<svg xmlns="http://www.w3.org/2000/svg" viewBox="0 0 1200 400" fill="none">
  <defs>
    <linearGradient id="bg" x1="0" y1="0" x2="1200" y2="400" gradientUnits="userSpaceOnUse">
      <stop offset="0%" stop-color="#050e1a"/>
      <stop offset="100%" stop-color="#0a1929"/>
    </linearGradient>
    <linearGradient id="fin-fill" x1="0" y1="0" x2="1" y2="1">
      <stop offset="0%" stop-color="#0a3d5c"/>
      <stop offset="100%" stop-color="#0e6fa3"/>
    </linearGradient>
    <linearGradient id="title-grad" x1="350" y1="0" x2="850" y2="0" gradientUnits="userSpaceOnUse">
      <stop offset="0%" stop-color="#e8f4ff"/>
      <stop offset="80%" stop-color="#22d3ee"/>
    </linearGradient>
    <linearGradient id="water" x1="0" y1="0" x2="1200" y2="0" gradientUnits="userSpaceOnUse">
      <stop offset="0%" stop-color="#22d3ee" stop-opacity="0"/>
      <stop offset="25%" stop-color="#22d3ee" stop-opacity="0.25"/>
      <stop offset="75%" stop-color="#22d3ee" stop-opacity="0.25"/>
      <stop offset="100%" stop-color="#22d3ee" stop-opacity="0"/>
    </linearGradient>
  </defs>

  <!-- Background -->
  <rect width="1200" height="400" rx="16" fill="url(#bg)"/>

  <!-- Subtle grid -->
  <g opacity="0.035" stroke="#64b4ff" stroke-width="0.5">
    <line x1="0" y1="100" x2="1200" y2="100"/>
    <line x1="0" y1="200" x2="1200" y2="200"/>
    <line x1="0" y1="300" x2="1200" y2="300"/>
  </g>

  <!-- Decorative dots -->
  <circle cx="80" cy="50" r="1.5" fill="#22d3ee" opacity="0.3"/>
  <circle cx="200" cy="350" r="1" fill="#22d3ee" opacity="0.2"/>
  <circle cx="1000" cy="45" r="2" fill="#22d3ee" opacity="0.25"/>
  <circle cx="1130" cy="330" r="1.5" fill="#22d3ee" opacity="0.3"/>
  <circle cx="900" cy="370" r="1" fill="#22d3ee" opacity="0.2"/>
  <circle cx="350" cy="35" r="1" fill="#22d3ee" opacity="0.15"/>
  <circle cx="1050" cy="180" r="1" fill="#22d3ee" opacity="0.15"/>
  <circle cx="150" cy="200" r="1.5" fill="#22d3ee" opacity="0.2"/>

  <!-- Shark Fin — centered -->
  <g transform="translate(555, 30)">
    <path d="M 12,90 Q 48,87 88,0 L 92,90 Q 48,86 12,90 Z" fill="#000" opacity="0.15" transform="translate(2,2)"/>
    <path d="M 10,90 Q 48,87 88,0 L 92,90 Q 48,86 10,90 Z" stroke="#0e6fa3" stroke-width="1.5" fill="url(#fin-fill)"/>
    <path d="M 30,90 Q 55,83 84,12 L 88,90 Q 55,86 30,90 Z" fill="#22d3ee" opacity="0.12"/>
  </g>

  <!-- Water line through fin -->
  <line x1="200" y1="100" x2="1000" y2="100" stroke="url(#water)" stroke-width="1"/>

  <!-- Title centered -->
  <text x="600" y="175" font-family="-apple-system, BlinkMacSystemFont, 'Segoe UI', Helvetica, Arial, sans-serif" font-size="80" font-weight="800" letter-spacing="-2" fill="url(#title-grad)" text-anchor="middle">SHARK-Fin</text>

  <!-- Subtitle centered -->
  <text x="600" y="210" font-family="-apple-system, BlinkMacSystemFont, 'Segoe UI', Helvetica, Arial, sans-serif" font-size="16" font-weight="500" letter-spacing="5" fill="#7ab8d9" text-anchor="middle">SOURCE HUNTING ALERT AND RISK KNOWLEDGE</text>

  <!-- Tagline centered -->
  <text x="600" y="248" font-family="-apple-system, BlinkMacSystemFont, 'Segoe UI', Helvetica, Arial, sans-serif" font-size="20" font-weight="500" fill="#22d3ee" text-anchor="middle">Intelijen Ancaman Siber Keuangan Indonesia</text>

  <!-- Divider -->
  <line x1="480" y1="272" x2="720" y2="272" stroke="#22d3ee" stroke-opacity="0.2" stroke-width="1"/>

  <!-- Pills centered -->
  <g transform="translate(243, 295)">
    <rect x="0" y="0" width="130" height="30" rx="15" fill="#22d3ee" fill-opacity="0.08" stroke="#22d3ee" stroke-opacity="0.2" stroke-width="1"/>
    <text x="65" y="20" font-family="-apple-system, BlinkMacSystemFont, 'Segoe UI', Helvetica, Arial, sans-serif" font-size="12" font-weight="600" fill="#22d3ee" text-anchor="middle">4 Sumber OSINT</text>

    <rect x="145" y="0" width="125" height="30" rx="15" fill="#22d3ee" fill-opacity="0.08" stroke="#22d3ee" stroke-opacity="0.2" stroke-width="1"/>
    <text x="207" y="20" font-family="-apple-system, BlinkMacSystemFont, 'Segoe UI', Helvetica, Arial, sans-serif" font-size="12" font-weight="600" fill="#22d3ee" text-anchor="middle">8 Tipe Entitas</text>

    <rect x="285" y="0" width="95" height="30" rx="15" fill="#22d3ee" fill-opacity="0.08" stroke="#22d3ee" stroke-opacity="0.2" stroke-width="1"/>
    <text x="332" y="20" font-family="-apple-system, BlinkMacSystemFont, 'Segoe UI', Helvetica, Arial, sans-serif" font-size="12" font-weight="600" fill="#22d3ee" text-anchor="middle">&lt; 1 Jam</text>

    <rect x="395" y="0" width="100" height="30" rx="15" fill="#22d3ee" fill-opacity="0.08" stroke="#22d3ee" stroke-opacity="0.2" stroke-width="1"/>
    <text x="445" y="20" font-family="-apple-system, BlinkMacSystemFont, 'Segoe UI', Helvetica, Arial, sans-serif" font-size="12" font-weight="600" fill="#22d3ee" text-anchor="middle">93 Tests</text>

    <rect x="510" y="0" width="130" height="30" rx="15" fill="#22d3ee" fill-opacity="0.08" stroke="#22d3ee" stroke-opacity="0.2" stroke-width="1"/>
    <text x="575" y="20" font-family="-apple-system, BlinkMacSystemFont, 'Segoe UI', Helvetica, Arial, sans-serif" font-size="12" font-weight="600" fill="#22d3ee" text-anchor="middle">SEOJK 29/2022</text>
  </g>

  <!-- PIDI badge -->
  <text x="600" y="365" font-family="-apple-system, BlinkMacSystemFont, 'Segoe UI', Helvetica, Arial, sans-serif" font-size="11" font-weight="400" fill="#4a7d9a" text-anchor="middle">PIDI DIGDAYA × Hackathon 2026 · PS1: Cyber Security &amp; Data Protection</text>
</svg>
